# Blender v3.2.2 OBJ File: 'end_button.blend'
# www.blender.org
v 0.000000 -0.500000 -0.500000
v 0.000000 0.500000 -0.500000
v 0.097545 -0.500000 -0.490393
v 0.097545 0.500000 -0.490393
v 0.191342 -0.500000 -0.461940
v 0.191342 0.500000 -0.461940
v 0.277785 -0.500000 -0.415735
v 0.277785 0.500000 -0.415735
v 0.353553 -0.500000 -0.353553
v 0.353553 0.500000 -0.353553
v 0.415735 -0.500000 -0.277785
v 0.415735 0.500000 -0.277785
v 0.461940 -0.500000 -0.191342
v 0.461940 0.500000 -0.191342
v 0.490393 -0.500000 -0.097545
v 0.490393 0.500000 -0.097545
v 0.500000 -0.500000 0.000000
v 0.500000 0.500000 0.000000
v 0.490393 -0.500000 0.097545
v 0.490393 0.500000 0.097545
v 0.461940 -0.500000 0.191342
v 0.461940 0.500000 0.191342
v 0.415735 -0.500000 0.277785
v 0.415735 0.500000 0.277785
v 0.353553 -0.500000 0.353553
v 0.353553 0.500000 0.353553
v 0.277785 -0.500000 0.415735
v 0.277785 0.500000 0.415735
v 0.191342 -0.500000 0.461940
v 0.191342 0.500000 0.461940
v 0.097545 -0.500000 0.490393
v 0.097545 0.500000 0.490393
v -0.000000 -0.500000 0.500000
v -0.000000 0.500000 0.500000
v -0.097545 -0.500000 0.490393
v -0.097545 0.500000 0.490393
v -0.191342 -0.500000 0.461940
v -0.191342 0.500000 0.461940
v -0.277785 -0.500000 0.415735
v -0.277785 0.500000 0.415735
v -0.353553 -0.500000 0.353553
v -0.353553 0.500000 0.353553
v -0.415735 -0.500000 0.277785
v -0.415735 0.500000 0.277785
v -0.461940 -0.500000 0.191342
v -0.461940 0.500000 0.191342
v -0.490393 -0.500000 0.097545
v -0.490393 0.500000 0.097545
v -0.500000 -0.500000 -0.000000
v -0.500000 0.500000 -0.000000
v -0.490393 -0.500000 -0.097545
v -0.490393 0.500000 -0.097545
v -0.461940 -0.500000 -0.191342
v -0.461940 0.500000 -0.191342
v -0.415735 -0.500000 -0.277785
v -0.415735 0.500000 -0.277785
v -0.353553 -0.500000 -0.353553
v -0.353553 0.500000 -0.353553
v -0.277785 -0.500000 -0.415735
v -0.277785 0.500000 -0.415735
v -0.191342 -0.500000 -0.461940
v -0.191342 0.500000 -0.461940
v -0.097545 -0.500000 -0.490393
v -0.097545 0.500000 -0.490393
v 0.048773 0.658098 -0.245196
v 0.000000 0.658098 -0.250000
v 0.095671 0.658098 -0.230970
v 0.138893 0.658098 -0.207867
v 0.176777 0.658098 -0.176777
v 0.207867 0.658098 -0.138893
v 0.230970 0.658098 -0.095671
v 0.245196 0.658098 -0.048773
v 0.250000 0.658098 0.000000
v 0.245196 0.658098 0.048773
v 0.230970 0.658098 0.095671
v 0.207867 0.658098 0.138893
v 0.176777 0.658098 0.176777
v 0.138893 0.658098 0.207867
v 0.095671 0.658098 0.230970
v 0.048773 0.658098 0.245196
v -0.000000 0.658098 0.250000
v -0.048773 0.658098 0.245196
v -0.095671 0.658098 0.230970
v -0.138893 0.658098 0.207867
v -0.176777 0.658098 0.176777
v -0.207867 0.658098 0.138893
v -0.230970 0.658098 0.095671
v -0.245196 0.658098 0.048773
v -0.250000 0.658098 0.000000
v -0.245196 0.658098 -0.048773
v -0.230970 0.658098 -0.095671
v -0.207867 0.658098 -0.138893
v -0.176777 0.658098 -0.176777
v -0.138893 0.658098 -0.207867
v -0.095671 0.658098 -0.230970
v -0.048773 0.658098 -0.245196
v 0.016676 0.658098 -0.083833
v 0.000000 0.658098 -0.085476
v 0.032710 0.658098 -0.078969
v 0.047488 0.658098 -0.071071
v 0.060441 0.658098 -0.060441
v 0.071071 0.658098 -0.047488
v 0.078969 0.658098 -0.032710
v 0.083833 0.658098 -0.016675
v 0.085476 0.658098 0.000000
v 0.083833 0.658098 0.016676
v 0.078969 0.658098 0.032710
v 0.071071 0.658098 0.047488
v 0.060441 0.658098 0.060441
v 0.047488 0.658098 0.071071
v 0.032710 0.658098 0.078969
v 0.016676 0.658098 0.083833
v -0.000000 0.658098 0.085476
v -0.016675 0.658098 0.083833
v -0.032710 0.658098 0.078969
v -0.047488 0.658098 0.071071
v -0.060441 0.658098 0.060441
v -0.071071 0.658098 0.047488
v -0.078969 0.658098 0.032710
v -0.083833 0.658098 0.016676
v -0.085476 0.658098 0.000000
v -0.083833 0.658098 -0.016676
v -0.078969 0.658098 -0.032710
v -0.071071 0.658098 -0.047488
v -0.060441 0.658098 -0.060441
v -0.047488 0.658098 -0.071071
v -0.032710 0.658098 -0.078969
v -0.016675 0.658098 -0.083833
v 0.016676 0.706702 -0.083833
v 0.000000 0.706702 -0.085476
v 0.032710 0.706702 -0.078969
v 0.047488 0.706702 -0.071071
v 0.060441 0.706702 -0.060441
v 0.071071 0.706702 -0.047488
v 0.078969 0.706702 -0.032710
v 0.083833 0.706702 -0.016675
v 0.085476 0.706702 0.000000
v 0.083833 0.706702 0.016676
v 0.078969 0.706702 0.032710
v 0.071071 0.706702 0.047488
v 0.060441 0.706702 0.060441
v 0.047488 0.706702 0.071071
v 0.032710 0.706702 0.078969
v 0.016676 0.706702 0.083833
v -0.000000 0.706702 0.085476
v -0.016675 0.706702 0.083833
v -0.032710 0.706702 0.078969
v -0.047488 0.706702 0.071071
v -0.060441 0.706702 0.060441
v -0.071071 0.706702 0.047488
v -0.078969 0.706702 0.032710
v -0.083833 0.706702 0.016676
v -0.085476 0.706702 0.000000
v -0.083833 0.706702 -0.016676
v -0.078969 0.706702 -0.032710
v -0.071071 0.706702 -0.047488
v -0.060441 0.706702 -0.060441
v -0.047488 0.706702 -0.071071
v -0.032710 0.706702 -0.078969
v -0.016675 0.706702 -0.083833

vt 0.324503 0.772428
vt 0.015682 0.802699
vt 0.015682 0.772429
vt 0.324503 0.802698
vt 0.015682 0.832969
vt 0.324504 0.832968
vt 0.015682 0.863239
vt 0.324504 0.863237
vt 0.015683 0.893508
vt 0.324504 0.893507
vt 0.015683 0.923778
vt 0.324504 0.923777
vt 0.015683 0.954048
vt 0.324504 0.954047
vt 0.015683 0.984318
vt 0.324504 0.015684
vt 0.015684 0.045952
vt 0.015684 0.015682
vt 0.324504 0.045954
vt 0.015683 0.076222
vt 0.324504 0.076223
vt 0.015683 0.106491
vt 0.324504 0.106493
vt 0.015683 0.136761
vt 0.324504 0.136763
vt 0.015683 0.167031
vt 0.324504 0.167033
vt 0.015683 0.197301
vt 0.324504 0.197302
vt 0.015683 0.227571
vt 0.324503 0.227572
vt 0.015682 0.257841
vt 0.324503 0.257842
vt 0.015682 0.288111
vt 0.324503 0.288112
vt 0.015682 0.318380
vt 0.324503 0.318381
vt 0.015682 0.348650
vt 0.324503 0.348651
vt 0.015682 0.378920
vt 0.324503 0.378921
vt 0.015682 0.409190
vt 0.324503 0.409191
vt 0.015682 0.439460
vt 0.324503 0.439460
vt 0.015682 0.469730
vt 0.324503 0.469730
vt 0.015682 0.500000
vt 0.324503 0.500000
vt 0.015682 0.530270
vt 0.324503 0.530270
vt 0.015682 0.560539
vt 0.324503 0.560539
vt 0.015682 0.590809
vt 0.324503 0.590809
vt 0.015682 0.621079
vt 0.324503 0.621079
vt 0.015682 0.651349
vt 0.324503 0.651349
vt 0.015682 0.681619
vt 0.324503 0.681619
vt 0.015682 0.711889
vt 0.677375 0.131859
vt 0.585042 0.145172
vt 0.664994 0.101984
vt 0.324503 0.711888
vt 0.015682 0.742159
vt 0.324503 0.742158
vt 0.494400 0.682472
vt 0.355868 0.513670
vt 0.524670 0.375138
vt 0.735005 0.520061
vt 0.763737 0.477232
vt 0.748988 0.525852
vt 0.441866 0.034484
vt 0.473006 0.122242
vt 0.415053 0.052475
vt 0.392397 0.284234
vt 0.472516 0.236787
vt 0.415196 0.307084
vt 0.664999 0.257491
vt 0.590308 0.201637
vt 0.677376 0.227624
vt 0.567380 0.021955
vt 0.527224 0.106067
vt 0.535675 0.015682
vt 0.355868 0.163685
vt 0.446237 0.186599
vt 0.355884 0.195923
vt 0.567453 0.337494
vt 0.554147 0.245279
vt 0.597302 0.325148
vt 0.577041 0.133053
vt 0.647021 0.075103
vt 0.462729 0.132453
vt 0.392275 0.075349
vt 0.484495 0.244922
vt 0.442017 0.325046
vt 0.593212 0.187407
vt 0.683687 0.195912
vt 0.512725 0.105993
vt 0.503361 0.015722
vt 0.448959 0.200874
vt 0.362168 0.227560
vt 0.624174 0.307209
vt 0.566250 0.237275
vt 0.566832 0.122730
vt 0.624148 0.052249
vt 0.374403 0.102219
vt 0.454649 0.144477
vt 0.471830 0.337428
vt 0.512015 0.253459
vt 0.503489 0.343752
vt 0.497832 0.250552
vt 0.593286 0.172881
vt 0.683687 0.163575
vt 0.471685 0.022072
vt 0.498495 0.108753
vt 0.454398 0.214332
vt 0.374494 0.257381
vt 0.647034 0.284364
vt 0.576562 0.227060
vt 0.554809 0.114599
vt 0.597255 0.034303
vt 0.449080 0.157856
vt 0.362115 0.132047
vt 0.535776 0.343774
vt 0.526498 0.253531
vt 0.590528 0.158620
vt 0.485083 0.114240
vt 0.462354 0.226457
vt 0.584685 0.215027
vt 0.541435 0.108973
vt 0.446240 0.172077
vt 0.540724 0.250768
vt 0.708493 0.628496
vt 0.722709 0.617643
vt 0.714777 0.632734
vt 0.694566 0.459539
vt 0.746139 0.459634
vt 0.697519 0.474383
vt 0.831080 0.402993
vt 0.788145 0.431567
vt 0.820378 0.392291
vt 0.768812 0.478241
vt 0.763832 0.528805
vt 0.748120 0.464415
vt 0.703310 0.488366
vt 0.783843 0.428692
vt 0.807794 0.383882
vt 0.778967 0.528805
vt 0.773987 0.478241
vt 0.793811 0.378091
vt 0.779062 0.426711
vt 0.779062 0.477232
vt 0.793811 0.525852
vt 0.773987 0.425702
vt 0.778967 0.375138
vt 0.783843 0.475251
vt 0.807794 0.520061
vt 0.768812 0.425702
vt 0.763832 0.375138
vt 0.788145 0.472377
vt 0.820378 0.511652
vt 0.748988 0.378091
vt 0.763737 0.426711
vt 0.831080 0.500950
vt 0.791804 0.468718
vt 0.735005 0.383883
vt 0.758956 0.428692
vt 0.839489 0.488366
vt 0.794679 0.464415
vt 0.754654 0.431567
vt 0.722421 0.392291
vt 0.796659 0.459634
vt 0.845280 0.474383
vt 0.750995 0.435226
vt 0.711719 0.402993
vt 0.848233 0.459539
vt 0.797669 0.454559
vt 0.748120 0.439528
vt 0.703310 0.415577
vt 0.797669 0.449384
vt 0.848233 0.444404
vt 0.711719 0.500950
vt 0.750995 0.468718
vt 0.746139 0.444309
vt 0.697518 0.429560
vt 0.796659 0.444309
vt 0.845280 0.429560
vt 0.722421 0.511652
vt 0.754654 0.472377
vt 0.694566 0.444404
vt 0.745130 0.449384
vt 0.839488 0.415577
vt 0.794679 0.439528
vt 0.758956 0.475251
vt 0.745130 0.454559
vt 0.791804 0.435226
vt 0.711576 0.600474
vt 0.731004 0.577166
vt 0.754277 0.596794
vt 0.767016 0.580504
vt 0.749756 0.585074
vt 0.762838 0.574179
vt 0.726587 0.619329
vt 0.721767 0.635662
vt 0.746810 0.582051
vt 0.757497 0.568798
vt 0.730725 0.620204
vt 0.729195 0.637163
vt 0.743324 0.579666
vt 0.751202 0.564572
vt 0.734965 0.620233
vt 0.736772 0.637183
vt 0.739426 0.578028
vt 0.744199 0.561663
vt 0.739119 0.619489
vt 0.744204 0.635722
vt 0.735264 0.577170
vt 0.736761 0.560179
vt 0.743028 0.617933
vt 0.751201 0.632829
vt 0.729177 0.560169
vt 0.746542 0.615627
vt 0.757488 0.628616
vt 0.726824 0.577908
vt 0.721735 0.561630
vt 0.749523 0.612659
vt 0.762823 0.623251
vt 0.696009 0.587386
vt 0.711541 0.596219
vt 0.694566 0.594811
vt 0.722885 0.579473
vt 0.714724 0.564516
vt 0.751892 0.609160
vt 0.767003 0.616944
vt 0.694583 0.602377
vt 0.719343 0.581757
vt 0.708418 0.568719
vt 0.753510 0.605253
vt 0.769867 0.609941
vt 0.712328 0.604672
vt 0.696057 0.609806
vt 0.716335 0.584705
vt 0.703066 0.574079
vt 0.754322 0.601075
vt 0.771316 0.602516
vt 0.713904 0.608624
vt 0.698947 0.616812
vt 0.713969 0.588184
vt 0.698876 0.580384
vt 0.771316 0.594952
vt 0.716235 0.612182
vt 0.703148 0.623122
vt 0.712351 0.592071
vt 0.753568 0.592589
vt 0.769873 0.587520
vt 0.719241 0.615205
vt 0.752036 0.588629
vt 0.324504 0.984317
vt 0.663202 0.543940
vt 0.657297 0.573628
vt 0.645713 0.601594
vt 0.628896 0.626762
vt 0.607492 0.648166
vt 0.582324 0.664983
vt 0.554358 0.676567
vt 0.524670 0.682472
vt 0.464712 0.676567
vt 0.436746 0.664983
vt 0.411578 0.648166
vt 0.390174 0.626762
vt 0.373357 0.601594
vt 0.361773 0.573628
vt 0.355868 0.543940
vt 0.361773 0.483982
vt 0.373357 0.456016
vt 0.390174 0.430848
vt 0.411578 0.409444
vt 0.436746 0.392627
vt 0.464712 0.381043
vt 0.494400 0.375138
vt 0.554358 0.381043
vt 0.582324 0.392627
vt 0.607492 0.409444
vt 0.628896 0.430848
vt 0.645713 0.456016
vt 0.657297 0.483982
vt 0.663202 0.513670

vn 0.0980 0.0000 -0.9952
vn 0.2903 0.0000 -0.9569
vn 0.4714 0.0000 -0.8819
vn 0.6344 0.0000 -0.7730
vn 0.7730 0.0000 -0.6344
vn 0.8819 0.0000 -0.4714
vn 0.9569 0.0000 -0.2903
vn 0.9952 0.0000 -0.0980
vn 0.9952 0.0000 0.0980
vn 0.9569 0.0000 0.2903
vn 0.8819 0.0000 0.4714
vn 0.7730 0.0000 0.6344
vn 0.6344 0.0000 0.7730
vn 0.4714 0.0000 0.8819
vn 0.2903 0.0000 0.9569
vn 0.0980 0.0000 0.9952
vn -0.0980 0.0000 0.9952
vn -0.2903 0.0000 0.9569
vn -0.4714 0.0000 0.8819
vn -0.6344 0.0000 0.7730
vn -0.7730 0.0000 0.6344
vn -0.8819 0.0000 0.4714
vn -0.9569 0.0000 0.2903
vn -0.9952 0.0000 0.0980
vn -0.9952 0.0000 -0.0980
vn -0.9569 0.0000 -0.2903
vn -0.8819 0.0000 -0.4714
vn -0.7730 0.0000 -0.6344
vn -0.6344 0.0000 -0.7730
vn -0.4714 0.0000 -0.8819
vn 0.4146 0.8440 0.3402
vn -0.2903 0.0000 -0.9569
vn -0.0980 0.0000 -0.9952
vn 0.0000 -1.0000 0.0000
vn 0.0000 1.0000 -0.0000
vn -0.4146 0.8440 0.3402
vn -0.2528 0.8440 -0.4730
vn 0.5337 0.8440 -0.0526
vn -0.0526 0.8440 0.5337
vn -0.5132 0.8440 -0.1557
vn 0.3402 0.8440 -0.4146
vn 0.3402 0.8440 0.4146
vn -0.4730 0.8440 0.2528
vn -0.1557 0.8440 -0.5132
vn 0.5337 0.8440 0.0526
vn -0.1557 0.8440 0.5132
vn -0.4730 0.8440 -0.2528
vn 0.4146 0.8440 -0.3402
vn 0.2528 0.8440 0.4730
vn -0.5132 0.8440 0.1557
vn 0.0526 0.8440 -0.5337
vn -0.0526 0.8440 -0.5337
vn 0.5132 0.8440 0.1557
vn -0.2528 0.8440 0.4730
vn -0.4146 0.8440 -0.3402
vn 0.4730 0.8440 -0.2528
vn 0.1557 0.8440 0.5132
vn -0.5337 0.8440 0.0526
vn 0.1557 0.8440 -0.5132
vn 0.4730 0.8440 0.2528
vn -0.3402 0.8440 0.4146
vn -0.3402 0.8440 -0.4146
vn 0.5132 0.8440 -0.1557
vn 0.0526 0.8440 0.5337
vn -0.5337 0.8440 -0.0526
vn 0.2528 0.8440 -0.4730

f 2/1/1 3/2/1 1/3/1
f 4/4/2 5/5/2 3/2/2
f 6/6/3 7/7/3 5/5/3
f 8/8/4 9/9/4 7/7/4
f 10/10/5 11/11/5 9/9/5
f 12/12/6 13/13/6 11/11/6
f 14/14/7 15/15/7 13/13/7
f 16/16/8 17/17/8 15/18/8
f 18/19/9 19/20/9 17/17/9
f 20/21/10 21/22/10 19/20/10
f 22/23/11 23/24/11 21/22/11
f 24/25/12 25/26/12 23/24/12
f 26/27/13 27/28/13 25/26/13
f 28/29/14 29/30/14 27/28/14
f 30/31/15 31/32/15 29/30/15
f 32/33/16 33/34/16 31/32/16
f 34/35/17 35/36/17 33/34/17
f 36/37/18 37/38/18 35/36/18
f 38/39/19 39/40/19 37/38/19
f 40/41/20 41/42/20 39/40/20
f 42/43/21 43/44/21 41/42/21
f 44/45/22 45/46/22 43/44/22
f 46/47/23 47/48/23 45/46/23
f 48/49/24 49/50/24 47/48/24
f 50/51/25 51/52/25 49/50/25
f 52/53/26 53/54/26 51/52/26
f 54/55/27 55/56/27 53/54/27
f 56/57/28 57/58/28 55/56/28
f 58/59/29 59/60/29 57/58/29
f 60/61/30 61/62/30 59/60/30
f 24/63/31 77/64/31 26/65/31
f 62/66/32 63/67/32 61/62/32
f 64/68/33 1/3/33 63/67/33
f 15/69/34 31/70/34 47/71/34
f 68/72/35 101/73/35 69/74/35
f 42/75/36 86/76/36 44/77/36
f 60/78/37 95/79/37 62/80/37
f 16/81/38 73/82/38 18/83/38
f 34/84/39 82/85/39 36/86/39
f 52/87/40 91/88/40 54/89/40
f 8/90/41 69/91/41 10/92/41
f 26/65/42 78/93/42 28/94/42
f 44/77/43 87/95/43 46/96/43
f 62/80/44 96/97/44 64/98/44
f 18/83/45 74/99/45 20/100/45
f 36/86/46 83/101/46 38/102/46
f 54/89/47 92/103/47 56/104/47
f 12/105/48 69/91/48 70/106/48
f 28/94/49 79/107/49 30/108/49
f 48/109/50 87/95/50 88/110/50
f 2/111/51 65/112/51 4/113/51
f 64/98/52 66/114/52 2/111/52
f 20/100/53 75/115/53 22/116/53
f 40/117/54 83/101/54 84/118/54
f 56/104/55 93/119/55 58/120/55
f 14/121/56 70/106/56 71/122/56
f 30/108/57 80/123/57 32/124/57
f 48/109/58 89/125/58 50/126/58
f 6/127/59 65/112/59 67/128/59
f 24/63/60 75/115/60 76/129/60
f 40/117/61 85/130/61 42/75/61
f 58/120/62 94/131/62 60/78/62
f 14/121/63 72/132/63 16/81/63
f 32/124/64 81/133/64 34/84/64
f 50/126/65 90/134/65 52/87/65
f 6/127/66 68/135/66 8/90/66
f 103/136/7 136/137/7 104/138/7
f 95/139/35 128/140/35 96/141/35
f 82/142/35 115/143/35 83/144/35
f 69/74/35 102/145/35 70/146/35
f 96/141/35 98/147/35 66/148/35
f 83/144/35 116/149/35 84/150/35
f 71/151/35 102/145/35 103/152/35
f 85/153/35 116/149/35 117/154/35
f 71/151/35 104/155/35 72/156/35
f 85/153/35 118/157/35 86/158/35
f 72/156/35 105/159/35 73/160/35
f 86/158/35 119/161/35 87/162/35
f 73/160/35 106/163/35 74/164/35
f 88/165/35 119/161/35 120/166/35
f 75/167/35 106/163/35 107/168/35
f 89/169/35 120/166/35 121/170/35
f 76/171/35 107/168/35 108/172/35
f 89/169/35 122/173/35 90/174/35
f 76/171/35 109/175/35 77/176/35
f 90/174/35 123/177/35 91/178/35
f 78/179/35 109/175/35 110/180/35
f 91/178/35 124/181/35 92/182/35
f 78/179/35 111/183/35 79/184/35
f 65/185/35 98/147/35 97/186/35
f 92/182/35 125/187/35 93/188/35
f 79/184/35 112/189/35 80/190/35
f 67/191/35 97/186/35 99/192/35
f 94/193/35 125/187/35 126/194/35
f 81/195/35 112/189/35 113/196/35
f 68/72/35 99/192/35 100/197/35
f 94/193/35 127/198/35 95/139/35
f 81/195/35 114/199/35 82/142/35
f 131/200/35 155/201/35 147/202/35
f 117/203/21 150/204/21 118/205/21
f 104/138/8 137/206/8 105/207/8
f 118/205/22 151/208/22 119/209/22
f 105/207/9 138/210/9 106/211/9
f 119/209/23 152/212/23 120/213/23
f 106/211/10 139/214/10 107/215/10
f 120/213/24 153/216/24 121/217/24
f 107/215/11 140/218/11 108/219/11
f 121/217/25 154/220/25 122/221/25
f 108/219/12 141/222/12 109/223/12
f 122/221/26 155/201/26 123/224/26
f 109/223/13 142/225/13 110/226/13
f 123/224/27 156/227/27 124/228/27
f 110/226/14 143/229/14 111/230/14
f 98/231/1 129/232/1 97/233/1
f 124/228/28 157/234/28 125/235/28
f 111/230/15 144/236/15 112/237/15
f 97/233/2 131/200/2 99/238/2
f 125/235/29 158/239/29 126/240/29
f 112/237/16 145/241/16 113/242/16
f 99/238/3 132/243/3 100/244/3
f 126/240/30 159/245/30 127/246/30
f 113/242/17 146/247/17 114/248/17
f 100/244/4 133/249/4 101/250/4
f 127/246/32 160/251/32 128/252/32
f 114/248/18 147/202/18 115/253/18
f 101/250/5 134/254/5 102/255/5
f 128/252/33 130/256/33 98/231/33
f 115/253/19 148/257/19 116/258/19
f 102/255/6 135/259/6 103/136/6
f 116/258/20 149/260/20 117/203/20
f 2/1/1 4/4/1 3/2/1
f 4/4/2 6/6/2 5/5/2
f 6/6/3 8/8/3 7/7/3
f 8/8/4 10/10/4 9/9/4
f 10/10/5 12/12/5 11/11/5
f 12/12/6 14/14/6 13/13/6
f 14/14/7 16/261/7 15/15/7
f 16/16/8 18/19/8 17/17/8
f 18/19/9 20/21/9 19/20/9
f 20/21/10 22/23/10 21/22/10
f 22/23/11 24/25/11 23/24/11
f 24/25/12 26/27/12 25/26/12
f 26/27/13 28/29/13 27/28/13
f 28/29/14 30/31/14 29/30/14
f 30/31/15 32/33/15 31/32/15
f 32/33/16 34/35/16 33/34/16
f 34/35/17 36/37/17 35/36/17
f 36/37/18 38/39/18 37/38/18
f 38/39/19 40/41/19 39/40/19
f 40/41/20 42/43/20 41/42/20
f 42/43/21 44/45/21 43/44/21
f 44/45/22 46/47/22 45/46/22
f 46/47/23 48/49/23 47/48/23
f 48/49/24 50/51/24 49/50/24
f 50/51/25 52/53/25 51/52/25
f 52/53/26 54/55/26 53/54/26
f 54/55/27 56/57/27 55/56/27
f 56/57/28 58/59/28 57/58/28
f 58/59/29 60/61/29 59/60/29
f 60/61/30 62/66/30 61/62/30
f 24/63/31 76/129/31 77/64/31
f 62/66/32 64/68/32 63/67/32
f 64/68/33 2/1/33 1/3/33
f 63/262/34 1/263/34 3/264/34
f 3/264/34 5/265/34 7/266/34
f 7/266/34 9/267/34 11/268/34
f 11/268/34 13/269/34 15/69/34
f 15/69/34 17/270/34 19/271/34
f 19/271/34 21/272/34 23/273/34
f 23/273/34 25/274/34 27/275/34
f 27/275/34 29/276/34 31/70/34
f 31/70/34 33/277/34 35/278/34
f 35/278/34 37/279/34 39/280/34
f 39/280/34 41/281/34 43/282/34
f 43/282/34 45/283/34 47/71/34
f 47/71/34 49/284/34 51/285/34
f 51/285/34 53/286/34 47/71/34
f 53/286/34 55/287/34 47/71/34
f 55/287/34 57/288/34 59/289/34
f 59/289/34 61/290/34 55/287/34
f 61/290/34 63/262/34 55/287/34
f 63/262/34 3/264/34 15/69/34
f 3/264/34 7/266/34 15/69/34
f 7/266/34 11/268/34 15/69/34
f 15/69/34 19/271/34 23/273/34
f 23/273/34 27/275/34 15/69/34
f 27/275/34 31/70/34 15/69/34
f 31/70/34 35/278/34 47/71/34
f 35/278/34 39/280/34 47/71/34
f 39/280/34 43/282/34 47/71/34
f 47/71/34 55/287/34 63/262/34
f 63/262/34 15/69/34 47/71/34
f 68/72/35 100/197/35 101/73/35
f 42/75/36 85/130/36 86/76/36
f 60/78/37 94/131/37 95/79/37
f 16/81/38 72/132/38 73/82/38
f 34/84/39 81/133/39 82/85/39
f 52/87/40 90/134/40 91/88/40
f 8/90/41 68/135/41 69/91/41
f 26/65/42 77/64/42 78/93/42
f 44/77/43 86/76/43 87/95/43
f 62/80/44 95/79/44 96/97/44
f 18/83/45 73/82/45 74/99/45
f 36/86/46 82/85/46 83/101/46
f 54/89/47 91/88/47 92/103/47
f 12/105/48 10/92/48 69/91/48
f 28/94/49 78/93/49 79/107/49
f 48/109/50 46/96/50 87/95/50
f 2/111/51 66/114/51 65/112/51
f 64/98/52 96/97/52 66/114/52
f 20/100/53 74/99/53 75/115/53
f 40/117/54 38/102/54 83/101/54
f 56/104/55 92/103/55 93/119/55
f 14/121/56 12/105/56 70/106/56
f 30/108/57 79/107/57 80/123/57
f 48/109/58 88/110/58 89/125/58
f 6/127/59 4/113/59 65/112/59
f 24/63/60 22/116/60 75/115/60
f 40/117/61 84/118/61 85/130/61
f 58/120/62 93/119/62 94/131/62
f 14/121/63 71/122/63 72/132/63
f 32/124/64 80/123/64 81/133/64
f 50/126/65 89/125/65 90/134/65
f 6/127/66 67/128/66 68/135/66
f 103/136/7 135/259/7 136/137/7
f 95/139/35 127/198/35 128/140/35
f 82/142/35 114/199/35 115/143/35
f 69/74/35 101/73/35 102/145/35
f 96/141/35 128/140/35 98/147/35
f 83/144/35 115/143/35 116/149/35
f 71/151/35 70/146/35 102/145/35
f 85/153/35 84/150/35 116/149/35
f 71/151/35 103/152/35 104/155/35
f 85/153/35 117/154/35 118/157/35
f 72/156/35 104/155/35 105/159/35
f 86/158/35 118/157/35 119/161/35
f 73/160/35 105/159/35 106/163/35
f 88/165/35 87/162/35 119/161/35
f 75/167/35 74/164/35 106/163/35
f 89/169/35 88/165/35 120/166/35
f 76/171/35 75/167/35 107/168/35
f 89/169/35 121/170/35 122/173/35
f 76/171/35 108/172/35 109/175/35
f 90/174/35 122/173/35 123/177/35
f 78/179/35 77/176/35 109/175/35
f 91/178/35 123/177/35 124/181/35
f 78/179/35 110/180/35 111/183/35
f 65/185/35 66/148/35 98/147/35
f 92/182/35 124/181/35 125/187/35
f 79/184/35 111/183/35 112/189/35
f 67/191/35 65/185/35 97/186/35
f 94/193/35 93/188/35 125/187/35
f 81/195/35 80/190/35 112/189/35
f 68/72/35 67/191/35 99/192/35
f 94/193/35 126/194/35 127/198/35
f 81/195/35 113/196/35 114/199/35
f 131/200/35 129/232/35 159/245/35
f 129/232/35 130/256/35 159/245/35
f 130/256/35 160/251/35 159/245/35
f 159/245/35 158/239/35 157/234/35
f 157/234/35 156/227/35 155/201/35
f 155/201/35 154/220/35 153/216/35
f 153/216/35 152/212/35 151/208/35
f 151/208/35 150/204/35 149/260/35
f 149/260/35 148/257/35 147/202/35
f 147/202/35 146/247/35 145/241/35
f 145/241/35 144/236/35 143/229/35
f 143/229/35 142/225/35 141/222/35
f 141/222/35 140/218/35 143/229/35
f 140/218/35 139/214/35 143/229/35
f 139/214/35 138/210/35 135/259/35
f 138/210/35 137/206/35 135/259/35
f 137/206/35 136/137/35 135/259/35
f 135/259/35 134/254/35 133/249/35
f 133/249/35 132/243/35 131/200/35
f 159/245/35 157/234/35 131/200/35
f 157/234/35 155/201/35 131/200/35
f 155/201/35 153/216/35 147/202/35
f 153/216/35 151/208/35 147/202/35
f 151/208/35 149/260/35 147/202/35
f 147/202/35 145/241/35 143/229/35
f 135/259/35 133/249/35 131/200/35
f 147/202/35 143/229/35 139/214/35
f 139/214/35 135/259/35 147/202/35
f 135/259/35 131/200/35 147/202/35
f 117/203/21 149/260/21 150/204/21
f 104/138/8 136/137/8 137/206/8
f 118/205/22 150/204/22 151/208/22
f 105/207/9 137/206/9 138/210/9
f 119/209/23 151/208/23 152/212/23
f 106/211/10 138/210/10 139/214/10
f 120/213/24 152/212/24 153/216/24
f 107/215/11 139/214/11 140/218/11
f 121/217/25 153/216/25 154/220/25
f 108/219/12 140/218/12 141/222/12
f 122/221/26 154/220/26 155/201/26
f 109/223/13 141/222/13 142/225/13
f 123/224/27 155/201/27 156/227/27
f 110/226/14 142/225/14 143/229/14
f 98/231/1 130/256/1 129/232/1
f 124/228/28 156/227/28 157/234/28
f 111/230/15 143/229/15 144/236/15
f 97/233/2 129/232/2 131/200/2
f 125/235/29 157/234/29 158/239/29
f 112/237/16 144/236/16 145/241/16
f 99/238/3 131/200/3 132/243/3
f 126/240/30 158/239/30 159/245/30
f 113/242/17 145/241/17 146/247/17
f 100/244/4 132/243/4 133/249/4
f 127/246/32 159/245/32 160/251/32
f 114/248/18 146/247/18 147/202/18
f 101/250/5 133/249/5 134/254/5
f 128/252/33 160/251/33 130/256/33
f 115/253/19 147/202/19 148/257/19
f 102/255/6 134/254/6 135/259/6
f 116/258/20 148/257/20 149/260/20
